<svg width="51" height="11" viewBox="0 0 51 11" fill="none" xmlns="http://www.w3.org/2000/svg">
<path d="M20.0453 2.96443V4.24695H15.8863V2.96443H20.0453ZM16.926 10V2.30026C16.926 1.82695 17.0238 1.43303 17.2192 1.1185C17.4177 0.80398 17.6834 0.56885 18.0162 0.413114C18.349 0.257379 18.7185 0.179511 19.1247 0.179511C19.4117 0.179511 19.6667 0.202413 19.8896 0.248218C20.1125 0.294023 20.2774 0.335247 20.3843 0.37189L20.0545 1.65442C19.9843 1.63304 19.8957 1.61167 19.7888 1.59029C19.682 1.56586 19.5629 1.55365 19.4316 1.55365C19.1231 1.55365 18.9048 1.62846 18.7766 1.77809C18.6514 1.92466 18.5888 2.13536 18.5888 2.41019V10H16.926ZM23.002 0.619235V10H21.3439V0.619235H23.002ZM27.8218 10.1374C27.1164 10.1374 26.5072 9.99084 25.9942 9.69769C25.4842 9.40149 25.0918 8.98314 24.817 8.44265C24.5422 7.8991 24.4048 7.25936 24.4048 6.52344C24.4048 5.79973 24.5422 5.16457 24.817 4.61797C25.0949 4.06831 25.4827 3.64081 25.9805 3.33544C26.4782 3.02703 27.063 2.87282 27.7348 2.87282C28.1684 2.87282 28.5776 2.94305 28.9623 3.08352C29.3501 3.22093 29.6921 3.43469 29.9884 3.72478C30.2876 4.01488 30.5227 4.38437 30.6937 4.83325C30.8647 5.27908 30.9502 5.81041 30.9502 6.42725V6.93568H25.1835V5.81805H29.3608C29.3578 5.50047 29.2891 5.21801 29.1547 4.97066C29.0204 4.72027 28.8326 4.52331 28.5913 4.37979C28.3531 4.23626 28.0753 4.1645 27.7577 4.1645C27.4187 4.1645 27.121 4.24695 26.8645 4.41185C26.608 4.57369 26.408 4.78745 26.2644 5.05311C26.124 5.31572 26.0522 5.60429 26.0492 5.91882V6.89445C26.0492 7.30364 26.124 7.65481 26.2736 7.94796C26.4232 8.23805 26.6324 8.46097 26.9011 8.6167C27.1698 8.76939 27.4844 8.84573 27.8447 8.84573C28.0859 8.84573 28.3043 8.81214 28.4997 8.74496C28.6951 8.67472 28.8646 8.57243 29.0081 8.43807C29.1517 8.30371 29.2601 8.13728 29.3333 7.9388L30.8815 8.11285C30.7838 8.52204 30.5976 8.87932 30.3227 9.18468C30.051 9.48699 29.7028 9.72212 29.2784 9.89007C28.8539 10.055 28.3684 10.1374 27.8218 10.1374ZM34.0111 5.87759V10H32.353V2.96443H33.9378V4.15992H34.0203C34.1821 3.76601 34.4402 3.45301 34.7944 3.22093C35.1517 2.98886 35.5929 2.87282 36.1181 2.87282C36.6037 2.87282 37.0266 2.97664 37.3869 3.18429C37.7503 3.39193 38.0312 3.69272 38.2297 4.08664C38.4313 4.48056 38.5305 4.95845 38.5275 5.52032V10H36.8693V5.77682C36.8693 5.30656 36.7472 4.9386 36.5029 4.67293C36.2617 4.40727 35.9273 4.27444 35.4998 4.27444C35.2097 4.27444 34.9517 4.33856 34.7257 4.46681C34.5028 4.59201 34.3272 4.7737 34.1989 5.01189C34.0737 5.25007 34.0111 5.53864 34.0111 5.87759ZM43.3278 10.1374C42.6224 10.1374 42.0132 9.99084 41.5002 9.69769C40.9902 9.40149 40.5978 8.98314 40.323 8.44265C40.0482 7.8991 39.9108 7.25936 39.9108 6.52344C39.9108 5.79973 40.0482 5.16457 40.323 4.61797C40.6009 4.06831 40.9887 3.64081 41.4864 3.33544C41.9842 3.02703 42.5689 2.87282 43.2407 2.87282C43.6744 2.87282 44.0835 2.94305 44.4683 3.08352C44.8561 3.22093 45.1981 3.43469 45.4943 3.72478C45.7936 4.01488 46.0287 4.38437 46.1997 4.83325C46.3707 5.27908 46.4562 5.81041 46.4562 6.42725V6.93568H40.6894V5.81805H44.8668C44.8638 5.50047 44.795 5.21801 44.6607 4.97066C44.5263 4.72027 44.3385 4.52331 44.0973 4.37979C43.8591 4.23626 43.5812 4.1645 43.2636 4.1645C42.9247 4.1645 42.627 4.24695 42.3705 4.41185C42.114 4.57369 41.9139 4.78745 41.7704 5.05311C41.63 5.31572 41.5582 5.60429 41.5551 5.91882V6.89445C41.5551 7.30364 41.63 7.65481 41.7796 7.94796C41.9292 8.23805 42.1384 8.46097 42.4071 8.6167C42.6758 8.76939 42.9903 8.84573 43.3507 8.84573C43.5919 8.84573 43.8102 8.81214 44.0057 8.74496C44.2011 8.67472 44.3706 8.57243 44.5141 8.43807C44.6576 8.30371 44.766 8.13728 44.8393 7.9388L46.3875 8.11285C46.2898 8.52204 46.1035 8.87932 45.8287 9.18468C45.5569 9.48699 45.2088 9.72212 44.7844 9.89007C44.3599 10.055 43.8744 10.1374 43.3278 10.1374ZM49.5171 0.619235V10H47.859V0.619235H49.5171Z" fill="#414141"/>
<path d="M3.24544 3.80644C4.00822 2.99281 6.10587 1.64523 7.05935 1.07314C7.20767 1.07314 7.51702 1.11128 7.56787 1.26385C7.61872 1.41642 6.65677 2.13258 6.16944 2.47159C6.7839 2.04782 8.05097 1.17485 8.20352 1.07314C8.39422 0.946011 8.90274 0.946011 9.22056 1.39097C9.47482 1.74693 8.64848 2.47157 8.20352 2.7894C8.43659 2.64108 8.95359 2.31902 9.157 2.21731C9.41126 2.09018 9.79265 2.21731 9.91978 2.47157C10.0215 2.67498 7.41955 4.75992 6.10588 5.77696C7.08054 5.12012 9.09343 3.80644 9.34769 3.80644C9.66552 3.80644 9.79265 4.0607 9.79265 4.44209C9.79265 4.7472 9.49601 4.86586 9.34769 4.88705V5.332C9.34769 5.53541 7.90689 6.56093 7.18648 7.04826C7.82213 6.73043 9.16971 6.08207 9.47482 6.03122C9.85621 5.96765 9.91978 6.09478 9.91978 6.28548C9.91978 6.43803 9.66552 6.73043 9.53839 6.85756C9.94097 6.70924 10.7588 6.47617 10.8097 6.73043C10.8605 6.98469 9.55958 7.93817 8.90274 8.38312C9.43245 8.17124 10.5427 7.7729 10.7461 7.8746C10.9495 7.97631 10.6614 8.25599 10.4919 8.38312C10.619 8.38312 10.886 8.44669 10.9368 8.70095C11.0004 9.01877 7.05935 10.5443 6.80509 10.4808C6.60168 10.4299 6.59321 10.3325 6.6144 10.2901C6.12706 10.4384 5.11426 10.735 4.9617 10.735C4.77101 10.735 4.77101 10.6079 4.64388 10.4808C4.54218 10.3791 4.81339 10.0994 4.9617 9.97225C4.74982 10.0146 4.2752 10.074 4.07179 9.97225C3.86839 9.87055 4.15655 9.59086 4.32605 9.46373H3.8811C3.62684 9.46373 3.49971 9.3366 3.49971 9.20947C3.49971 9.10777 3.3302 9.25185 3.24544 9.3366C3.01237 9.48492 2.45724 9.81969 2.10127 9.97225C1.65631 10.1629 1.27493 9.65443 1.08423 9.46373C0.931678 9.31117 1.02067 9.14591 1.08423 9.08234L2.86406 7.30252C2.82168 7.30252 2.62251 7.32794 2.16484 7.42965C1.70717 7.53135 1.76226 7.00588 1.84701 6.73043C1.78345 6.66687 1.63089 6.48889 1.52919 6.28548C1.42748 6.08207 1.91058 5.73458 2.16484 5.58626C2.20721 5.56507 2.25383 5.48456 2.10127 5.332C1.91058 5.14131 2.29197 4.82348 3.24544 3.80644Z" fill="#414141" stroke="#414141" stroke-width="0.12713"/>
</svg>
